<svg class="c-brand__svg" fill="none" height="24" viewBox="0 0 102 24" width="102" xmlns="http://www.w3.org/2000/svg">
    <path d="m51.0669 14.5615c-.4739.7756-1.2265 1.1634-2.0349 1.1634-1.338 0-2.7317-1.0249-2.7317-2.964 0-1.9113 1.3937-2.90853 2.7317-2.90853.8084-.0277 1.5889.36013 2.0349 1.08033l.0279-.0277 2.1742-1.82825c-1.0314-1.30194-2.6481-1.96675-4.2927-1.96675-2.8433 0-5.798 1.91135-5.798 5.6786 0 3.795 2.9269 5.6787 5.7701 5.651 1.6725-.0277 3.2892-.6925 4.3206-1.9668zm19.8191-.4709v-12.24374h-3.0941v12.24374c0 3.8504 2.007 4.6814 5.352 4.072l-.1115-2.3269c-1.4774.2493-2.1464-.0831-2.1464-1.7451zm-6.0767.9695v-3.7673c0-3.10248-2.3415-4.1828-5.1012-4.1828-1.4495 0-3.2056.33241-4.5436 1.10803l1.0593 2.07757c.6968-.38783 1.784-.72024 3.0662-.72024 1.0871 0 2.5088.30471 2.5088 1.60664v.6094c-.8084-.5263-1.8955-.6925-2.8712-.6925-2.3972 0-4.3206 1.2465-4.2091 3.8781.0558 2.0776 1.8955 3.3795 3.9304 3.3795 1.3937 0 3.0941-.5263 3.7352-1.856 0 1.9114 1.784 1.9945 3.4286 1.6621l-.0278-1.7452c-1.0035.0831-.9756-.4432-.9756-1.3573zm-3.0663-.7479c-.1115 1.1357-1.4216 1.6343-2.453 1.6343-.7247 0-1.4216-.3878-1.4774-1.1634-.1115-1.0526.6969-1.6066 1.6725-1.662.7805 0 1.6168.1939 2.23.6371v.554zm-25.9794-7.2022c-2.8433.0277-5.6865 1.91135-5.6865 5.6509 0 3.7673 2.899 5.651 5.7701 5.651 2.8432 0 5.6865-1.8837 5.6865-5.651.0278-3.79495-2.8711-5.6786-5.7701-5.6509zm.0278 8.5595c-1.3101 0-2.5923-.9695-2.5923-2.9086 0-1.939 1.3101-2.90853 2.6481-2.90853 1.3101 0 2.5924.96953 2.5924 2.90853 0 1.9668-1.3102 2.9363-2.6482 2.9086zm-8.9757-1.5789v-12.24374h-3.0941v12.24374c0 3.8504 2.007 4.6814 5.352 4.072l-.1115-2.3269c-1.4774.2493-2.1464-.0831-2.1464-1.7451zm-16.0281.4986v-12.71464h-3.14987v5.95565c-3.76311-1.85594-7.63773.72023-7.63773 4.95839 0 3.0194 1.72825 5.7064 4.98961 5.6233 1.42163-.0277 2.64812-.7479 3.26137-2.0776v.277c.05575 1.856 2.00702 1.8837 3.56802 1.5236l-.0279-2.0222c-.9756.1108-1.0035-.4709-1.0035-1.5235zm-3.03837-1.385c0 1.3019-.86412 2.4376-2.22999 2.4376-1.6725 0-2.36937-1.3296-2.36937-2.8809 0-2.6869 2.36937-3.62875 4.62724-2.3268v2.7701z"
          fill="#000"></path>
    <path d="m18.9829 10.4341h-3.1219v3.1025h3.1219z" fill="#482683"></path>
    <g fill="#006cfa">
        <path d="m82.6982 7.86c.7776 0 1.4957.17457 2.1544.52371.6586.34915 1.2378.84906 1.7377 1.49974v-.95221c0-.2936.0556-.49992.1667-.61894.119-.12696.3134-.19045.5832-.19045h1.8925c.2698 0 .4603.06349.5714.19045.119.11902.1785.32534.1785.61894 0 .29359-.0595.50387-.1785.63084-.1111.11902-.3016.17854-.5714.17854h-.976v9.73638c0 .9443-.2023 1.7536-.607 2.4281-.3968.6825-.976 1.2022-1.7378 1.5593s-1.6783.5356-2.7495.5356c-.7618 0-1.5315-.0674-2.3091-.2023-.7777-.127-1.5037-.3135-2.1782-.5595-.3095-.1111-.4642-.3213-.4642-.6308 0-.127.0317-.2857.0952-.4761.1428-.4364.369-.6547.6784-.6547.0873 0 .1746.0159.2619.0476.6189.2222 1.2696.3968 1.952.5238.6825.1269 1.3371.1904 1.964.1904 1.095 0 1.9203-.2619 2.4757-.7856.5555-.5158.8332-1.2259.8332-2.1305v-2.3925c-.9839 1.2379-2.2417 1.8568-3.7731 1.8568-.984 0-1.8648-.2182-2.6424-.6546-.7777-.4444-1.3887-1.0792-1.833-1.9044-.4444-.8253-.6666-1.7934-.6666-2.9043s.2222-2.079.6666-2.9042c.4443-.82528 1.0553-1.45612 1.833-1.89256.7776-.44436 1.6584-.66654 2.6424-.66654zm.119 1.76159c-.7062 0-1.3133.1587-1.8211.47611-.5079.3095-.8967.7459-1.1665 1.3093-.2618.5554-.3928 1.1942-.3928 1.9163s.131 1.3649.3928 1.9282c.2698.5555.6586.9919 1.1665 1.3093.5078.3095 1.1149.4642 1.8211.4642s1.3331-.1468 1.8806-.4404c.5555-.2936.9879-.7181 1.2974-1.2735.3174-.5634.4761-1.226.4761-1.9878s-.1587-1.4204-.4761-1.9758c-.3095-.5634-.7419-.9919-1.2974-1.2855-.5475-.29361-1.1744-.44041-1.8806-.44041z"></path>
        <path d="m96.2629 7.86c1.0871 0 2.0671.24598 2.94.73796.8731.49198 1.5551 1.17836 2.0471 2.05914.5.8729.75 1.8608.75 2.9638s-.25 2.0948-.75 2.9756c-.492.8729-1.174 1.5553-2.0471 2.0473-.8729.492-1.8529.738-2.94.738s-2.0671-.246-2.9399-.738c-.8729-.492-1.5593-1.1744-2.0592-2.0473-.492-.8808-.738-1.8726-.738-2.9756s.246-2.0909.738-2.9638c.4999-.88078 1.1863-1.56716 2.0592-2.05914.8728-.49198 1.8528-.73796 2.9399-.73796zm0 1.76159c-.7697 0-1.4481.1706-2.0353.51181-.5793.3333-1.0276.8054-1.345 1.4164-.3174.6031-.4761 1.2934-.4761 2.0711 0 .7776.1587 1.4719.4761 2.0829.3174.6031.7657 1.0753 1.345 1.4165.5872.3332 1.2656.4999 2.0353.4999s1.4442-.1667 2.0235-.4999c.5872-.3412 1.0395-.8134 1.3569-1.4165.3174-.611.4757-1.3053.4757-2.0829 0-.7777-.1583-1.468-.4757-2.0711-.3174-.611-.7697-1.0831-1.3569-1.4164-.5793-.34121-1.2538-.51181-2.0235-.51181z"></path>
    </g>
</svg>