<?xml version="1.0" standalone="no"?>
<!DOCTYPE svg PUBLIC "-//W3C//DTD SVG 20010904//EN"
 "http://www.w3.org/TR/2001/REC-SVG-20010904/DTD/svg10.dtd">
<svg version="1.0" xmlns="http://www.w3.org/2000/svg"
 width="598.000000pt" height="296.000000pt" viewBox="0 0 598.000000 296.000000"
 preserveAspectRatio="xMidYMid meet">

<g transform="translate(0.000000,296.000000) scale(0.100000,-0.100000)"
fill="#000000" stroke="none">
<path d="M860 2705 c-491 -77 -860 -508 -860 -1005 0 -273 108 -530 304 -725
133 -133 279 -217 464 -267 108 -30 372 -32 482 -4 621 155 953 809 707 1392
-119 282 -387 515 -677 587 -153 38 -274 45 -420 22z m338 -151 c144 -29 299
-108 407 -207 305 -278 376 -726 172 -1086 -50 -88 -177 -227 -260 -283 -81
-55 -187 -104 -282 -129 -114 -31 -317 -31 -430 -1 -499 134 -775 642 -613
1129 100 301 371 533 688 586 64 11 247 6 318 -9z"/>
<path d="M930 2420 c-162 -21 -301 -90 -420 -210 -127 -127 -184 -238 -211
-414 -39 -246 76 -523 278 -674 144 -108 258 -146 443 -147 137 0 217 18 330
75 273 138 435 447 390 745 -50 332 -303 582 -633 625 -80 10 -98 10 -177 0z
m225 -155 c209 -53 377 -217 430 -421 19 -75 19 -213 0 -289 -51 -195 -203
-355 -395 -416 -91 -30 -249 -30 -340 0 -189 60 -347 224 -394 407 -21 81 -21
234 0 305 59 201 228 366 420 413 79 19 206 19 279 1z"/>
<path d="M2623 1853 c3 -507 8 -732 16 -764 30 -116 112 -200 230 -237 59 -18
269 -24 324 -9 27 7 27 9 27 85 l0 78 -107 -4 c-67 -3 -125 0 -153 8 -57 15
-124 80 -139 135 -7 26 -11 185 -11 468 l0 427 205 0 205 0 0 80 0 79 -245 -6
c-158 -4 -245 -3 -245 4 0 5 17 14 38 19 l37 9 3 173 2 172 -96 0 -96 0 5
-717z"/>
<path d="M3786 2214 c-80 -19 -188 -78 -241 -131 -43 -44 -107 -153 -118 -204
-6 -25 -4 -26 84 -51 l90 -26 10 27 c40 103 99 168 187 202 48 20 76 23 177
24 114 0 123 -1 187 -32 77 -36 120 -87 142 -167 18 -63 26 -156 14 -156 -4 0
-117 -16 -251 -35 -389 -55 -513 -97 -609 -203 -53 -60 -78 -124 -85 -222 -20
-281 219 -465 547 -422 194 26 324 105 420 255 20 31 39 54 43 51 3 -3 -3 -29
-15 -58 -12 -29 -22 -86 -25 -133 l-6 -83 87 0 86 0 0 454 c0 256 -5 489 -10
533 -26 193 -143 324 -335 373 -94 24 -287 26 -379 4z m531 -776 c-11 -234
-108 -376 -296 -439 -95 -32 -246 -33 -316 -1 -98 45 -145 113 -145 211 0 33
5 72 11 88 28 76 130 138 283 173 71 17 380 63 455 69 11 1 13 -18 8 -101z"/>
<path d="M5230 2216 c-64 -18 -128 -49 -177 -84 -40 -30 -116 -117 -126 -144
-2 -7 -8 -10 -12 -6 -4 4 0 25 9 48 9 23 16 69 16 105 l0 65 -85 0 -85 0 0
-980 0 -980 95 0 95 0 0 350 c0 291 -3 357 -16 396 -20 58 -9 69 24 24 47 -63
109 -117 164 -144 167 -82 399 -68 554 32 138 91 226 225 271 420 26 112 23
328 -6 437 -33 127 -92 237 -170 315 -119 120 -221 161 -401 159 -58 0 -125
-6 -150 -13z m263 -177 c96 -32 164 -92 216 -189 51 -96 65 -168 65 -330 0
-130 -3 -154 -27 -226 -60 -182 -162 -278 -321 -304 -133 -21 -267 21 -350
110 -90 96 -136 241 -136 426 0 275 105 461 293 519 66 21 188 18 260 -6z"/>
</g>
</svg>
